<svg width="109" height="109" viewBox="0 0 109 109" fill="none" xmlns="http://www.w3.org/2000/svg">
<path d="M90.74 36.29H75.62C73.95 36.29 72.6 34.94 72.6 33.27V18.15C72.6 8.13 64.47 0 54.45 0C44.43 0 36.3 8.13 36.3 18.15V33.27C36.3 34.94 34.95 36.29 33.28 36.29H18.16C8.13 36.29 0 44.41 0 54.44C0 64.47 8.13 72.59 18.15 72.59H33.27C34.94 72.59 36.29 73.94 36.29 75.61V90.73C36.29 100.75 44.42 108.88 54.44 108.88C64.46 108.88 72.59 100.75 72.59 90.73V75.61C72.59 73.94 73.94 72.59 75.61 72.59H90.73C100.75 72.59 108.88 64.46 108.88 54.44C108.88 44.42 100.75 36.29 90.73 36.29H90.74ZM90.74 57.46H75.62C65.6 57.46 57.47 65.59 57.47 75.61V90.73C57.47 92.4 56.12 93.75 54.45 93.75C52.78 93.75 51.43 92.4 51.43 90.73V75.61C51.43 65.59 43.3 57.46 33.28 57.46H18.16C16.49 57.46 15.14 56.11 15.14 54.44C15.14 52.77 16.49 51.42 18.16 51.42H33.28C43.3 51.42 51.43 43.29 51.43 33.27V18.15C51.43 16.48 52.78 15.13 54.45 15.13C56.12 15.13 57.47 16.48 57.47 18.15V33.27C57.47 43.29 65.6 51.42 75.62 51.42H90.74C92.41 51.42 93.76 52.77 93.76 54.44C93.76 56.11 92.41 57.46 90.74 57.46Z" fill="#349BC6"/>
</svg>
